<?xml version="1.0" encoding="UTF-8" standalone="no"?>
<!-- Created with Inkscape (http://www.inkscape.org/) -->

<svg
   xmlns:dc="http://purl.org/dc/elements/1.1/"
   xmlns:cc="http://creativecommons.org/ns#"
   xmlns:rdf="http://www.w3.org/1999/02/22-rdf-syntax-ns#"
   xmlns:svg="http://www.w3.org/2000/svg"
   xmlns="http://www.w3.org/2000/svg"
   xmlns:sodipodi="http://sodipodi.sourceforge.net/DTD/sodipodi-0.dtd"
   xmlns:inkscape="http://www.inkscape.org/namespaces/inkscape"
   width="165.94667mm"
   height="165.94667mm"
   viewBox="0 0 588.00006 588.00001"
   id="svg2"
   version="1.1"
   inkscape:version="0.91 r13725"
   sodipodi:docname="logo.svg"
   inkscape:export-filename="/Users/n/projects/ethsms/public_website/assets/images/logo"
   inkscape:export-xdpi="999.95801"
   inkscape:export-ydpi="999.95801"
   style="enable-background:new">
  <defs
     id="defs4">
    <filter
       inkscape:collect="always"
       style="color-interpolation-filters:sRGB"
       id="filter4249">
      <feBlend
         inkscape:collect="always"
         mode="multiply"
         in2="BackgroundImage"
         id="feBlend4251" />
    </filter>
  </defs>
  <sodipodi:namedview
     id="base"
     pagecolor="#27ffff"
     bordercolor="#666666"
     borderopacity="1.0"
     inkscape:pageopacity="0"
     inkscape:pageshadow="2"
     inkscape:zoom="0.7"
     inkscape:cx="326.59562"
     inkscape:cy="299.9122"
     inkscape:document-units="px"
     inkscape:current-layer="layer3"
     showgrid="false"
     fit-margin-top="0"
     fit-margin-left="0"
     fit-margin-right="0"
     fit-margin-bottom="0"
     inkscape:window-width="1440"
     inkscape:window-height="780"
     inkscape:window-x="0"
     inkscape:window-y="1"
     inkscape:window-maximized="1" />
  <metadata
     id="metadata7">
    <rdf:RDF>
      <cc:Work
         rdf:about="">
        <dc:format>image/svg+xml</dc:format>
        <dc:type
           rdf:resource="http://purl.org/dc/dcmitype/StillImage" />
        <dc:title></dc:title>
      </cc:Work>
    </rdf:RDF>
  </metadata>
  <g
     inkscape:groupmode="layer"
     id="layer3"
     inkscape:label="Layer 3"
     transform="translate(84.285736,52.589622)">
    <rect
       style="opacity:1;fill:#242943;fill-opacity:1"
       id="rect4256"
       width="588.00006"
       height="588.00006"
       x="-84.285736"
       y="-52.589638"
       ry="10.26434" />
  </g>
  <g
     inkscape:label="Layer 1"
     inkscape:groupmode="layer"
     id="layer1"
     transform="translate(-3.5479559,-119.76607)">
    <path
       style="fill:#ffffff;fill-opacity:1"
       d="m 104.09672,660.58897 c -18.038575,-4.41747 -17.338301,-7.66647 6.9867,-32.41561 24.31113,-24.73502 34.51535,-40.77341 40.01554,-62.89407 l 1.95015,-7.8431 -10.6399,-12.6569 C -14.909819,357.63755 197.1663,82.529511 407.3919,201.04011 619.99559,320.89132 505.61411,660.43 267.25327,617.03829 l -8.86321,-1.61348 -5.92149,3.4722 c -49.92304,29.27342 -119.3823,48.79123 -148.37185,41.69196 z"
       id="path4202"
       inkscape:connector-curvature="0" />
  </g>
  <g
     inkscape:groupmode="layer"
     id="layer2"
     inkscape:label="Layer 2"
     transform="translate(-3.5479559,-119.76607)"
     style="filter:url(#filter4249)">
    <path
       style="fill:#242943;fill-opacity:1"
       d="m 244.61543,522.60523 c -31.08256,-43.83568 -59.3658,-83.70906 -62.85169,-88.60751 -8.28099,-11.63667 -10.53411,-12.72199 59.56285,28.6914 32.69509,19.31631 60.12736,35.12055 60.96061,35.12055 0.83326,0 28.26553,-15.80424 60.96062,-35.12055 69.60344,-41.12183 67.41042,-40.04441 60.13318,-29.54291 -25.94402,37.43889 -119.64695,168.2806 -120.79185,168.66723 -0.803,0.27116 -26.89115,-35.37253 -57.97372,-79.20821 z m -6.23484,-83.15748 c -39.52188,-23.56769 -60.99795,-37.38057 -60.61809,-38.9881 0.77374,-3.27444 123.3554,-206.85358 124.5247,-206.80607 1.32879,0.054 124.97612,206.23127 124.78534,208.07488 -0.20438,1.97496 -122.58118,74.5261 -125.40838,74.34843 -1.14247,-0.0719 -29.62009,-16.55491 -63.28357,-36.62914 z"
       id="path4153"
       inkscape:connector-curvature="0" />
  </g>
</svg>
